<svg width="27" height="37" viewBox="0 0 27 37" fill="none" xmlns="http://www.w3.org/2000/svg">
<g clip-path="url(#clip0_402_243)">
<path d="M27.0002 31.5562C27.0002 32.7938 26.5564 33.8555 25.6687 34.738C24.781 35.6222 23.717 36.0636 22.4743 36.0636H13.5268C9.799 36.0636 6.61337 34.7466 3.96801 32.1094C1.32193 29.4725 0.000244141 26.2985 0.000244141 22.5827V4.51199C0.000244141 3.23856 0.440903 2.16899 1.32193 1.30123C2.20296 0.434736 3.2792 0.000244141 4.54946 0.000244141C5.7828 0.000244141 6.84252 0.442851 7.72236 1.32705C8.60487 2.21032 9.04675 3.27008 9.04675 4.50886V11.0521H21.7855C22.9421 11.0521 23.9329 11.462 24.7596 12.2824C25.5851 13.1014 25.9971 14.0844 25.9971 15.2323C25.9971 16.378 25.5852 17.3627 24.7625 18.1823C23.9395 19.0009 22.9507 19.4115 21.7991 19.4115H9.04675V22.5785C9.04675 23.8204 9.48027 24.8752 10.3517 25.7455C11.2221 26.6132 12.2789 27.0477 13.5223 27.0477H22.4726C23.7145 27.0477 24.7809 27.4908 25.6686 28.3745C26.5563 29.2588 27.0002 30.3193 27.0002 31.5563" fill="black"/>
</g>
<defs>
<clipPath id="clip0_402_243">
<rect width="27" height="36.0634" fill="white"/>
</clipPath>
</defs>
</svg>
